<?xml version="1.0" encoding="UTF-8" standalone="no"?>
<svg width="673px" height="599px" viewBox="0 0 673 599" version="1.1" xmlns="http://www.w3.org/2000/svg" xmlns:xlink="http://www.w3.org/1999/xlink" xmlns:sketch="http://www.bohemiancoding.com/sketch/ns">
    <!-- Generator: Sketch 3.4.2 (15855) - http://www.bohemiancoding.com/sketch -->
    <title>Untitled</title>
    <desc>Created with Sketch.</desc>
    <defs></defs>
    <g id="Page-1" stroke="none" stroke-width="1" fill="none" fill-rule="evenodd" sketch:type="MSPage">
        <g id="Group" sketch:type="MSLayerGroup" transform="translate(173.000000, 156.000000)" stroke="#685BBF">
            <path d="M312.185965,50.3493906 L154.697385,131.66245 L0.977469813,73.789158 L145.179933,-5.68434189e-14 L312.185965,50.3493906 Z" id="Rectangle-1" fill="#CCBEFF" sketch:type="MSShapeGroup"></path>
            <path d="M2.97075268,72.8976478 L158.645213,128.281527 L156.046765,263.73228 L1,199.380026 L2.97075268,72.8976478 Z" id="Rectangle-1" fill="#E9E9E9" sketch:type="MSShapeGroup"></path>
            <path d="M306.585353,154.212312 L157.152054,261.982471 L153.775366,131.117184 L312.730457,50.4652702 L306.585353,154.212312 Z" id="Rectangle-1" fill="#C1BBE5" sketch:type="MSShapeGroup"></path>
            <path d="M2.97075268,72.8976478 L158.645213,128.281527 L156.046765,263.73228 L1,199.380026 L2.97075268,72.8976478 Z" id="Rectangle-1" fill="#C0BDE4" sketch:type="MSShapeGroup"></path>
        </g>
        <g id="Group" sketch:type="MSLayerGroup" transform="translate(1.000000, 247.000000)">
            <path d="M312.185965,50.3493906 L154.697385,131.66245 L0.977469813,73.789158 L145.179933,-2.84217094e-14 L312.185965,50.3493906 Z" id="Rectangle-1" stroke="#685BBF" fill="#CAC2FE" sketch:type="MSShapeGroup"></path>
            <path d="M2.97075268,72.8976478 L158.645213,128.281527 L156.046765,263.73228 L1,199.380026 L2.97075268,72.8976478 Z" id="Rectangle-1" stroke="#979797" fill="#C5BD8C" sketch:type="MSShapeGroup"></path>
            <path d="M306.585353,154.212312 L157.152054,261.982471 L153.775366,131.117184 L312.730457,50.4652702 L306.585353,154.212312 Z" id="Rectangle-1" stroke="#685BBF" fill="#BFBFE3" sketch:type="MSShapeGroup"></path>
            <path d="M2.97075268,72.8976478 L158.645213,128.281527 L156.046765,263.73228 L1,199.380026 L2.97075268,72.8976478 Z" id="Rectangle-1" stroke="#685BBF" fill="#C0BDE4" sketch:type="MSShapeGroup"></path>
        </g>
        <g id="Group" sketch:type="MSLayerGroup" transform="translate(346.000000, 222.000000)">
            <path d="M312.185965,50.3493906 L154.697385,131.66245 L0.977469813,73.789158 L145.179933,-2.84217094e-14 L312.185965,50.3493906 Z" id="Rectangle-1" stroke="#685BBF" fill="#CAC2FE" sketch:type="MSShapeGroup"></path>
            <path d="M2.97075268,72.8976478 L158.645213,128.281527 L156.046765,263.73228 L1,199.380026 L2.97075268,72.8976478 Z" id="Rectangle-1" stroke="#979797" fill="#C5BD8C" sketch:type="MSShapeGroup"></path>
            <path d="M306.585353,154.212312 L157.152054,261.982471 L153.775366,131.117184 L312.730457,50.4652702 L306.585353,154.212312 Z" id="Rectangle-1" stroke="#685BBF" fill="#BFBFE3" sketch:type="MSShapeGroup"></path>
            <path d="M2.97075268,72.8976478 L158.645213,128.281527 L156.046765,263.73228 L1,199.380026 L2.97075268,72.8976478 Z" id="Rectangle-1" stroke="#685BBF" fill="#C0BDE4" sketch:type="MSShapeGroup"></path>
        </g>
        <text id="jsbundler" sketch:type="MSTextLayer" font-family="Circe" font-size="144" font-weight="normal" fill="#666666">
            <tspan x="49" y="147">jsbundler</tspan>
        </text>
        <g id="Group" sketch:type="MSLayerGroup" transform="translate(177.000000, 327.000000)">
            <path d="M312.185965,50.3493906 L154.697385,131.66245 L0.977469813,73.789158 L145.179933,-2.84217094e-14 L312.185965,50.3493906 Z" id="Rectangle-1" stroke="#685BBF" fill="#CAC2FE" sketch:type="MSShapeGroup"></path>
            <path d="M2.97075268,72.8976478 L158.645213,128.281527 L156.046765,263.73228 L1,199.380026 L2.97075268,72.8976478 Z" id="Rectangle-1" stroke="#979797" fill="#C5BD8C" sketch:type="MSShapeGroup"></path>
            <path d="M306.585353,154.212312 L157.152054,261.982471 L153.775366,131.117184 L312.730457,50.4652702 L306.585353,154.212312 Z" id="Rectangle-1" stroke="#685BBF" fill="#BFBFE3" sketch:type="MSShapeGroup"></path>
            <path d="M2.97075268,72.8976478 L158.645213,128.281527 L156.046765,263.73228 L1,199.380026 L2.97075268,72.8976478 Z" id="Rectangle-1" stroke="#685BBF" fill="#C0BDE4" sketch:type="MSShapeGroup"></path>
        </g>
    </g>
</svg>